<svg width="19" height="18" viewBox="0 0 19 18" fill="none" xmlns="http://www.w3.org/2000/svg">
<path d="M18.6879 16.2848L15.1001 12.8958C16.2577 11.4988 16.8858 9.77351 16.8834 7.99743C16.8834 6.41569 16.3884 4.86947 15.4608 3.5543C14.5332 2.23913 13.2148 1.21408 11.6722 0.608771C10.1297 0.00346513 8.43236 -0.15491 6.79483 0.153672C5.15729 0.462254 3.65312 1.22393 2.47253 2.34239C1.29193 3.46085 0.487935 4.88586 0.162209 6.43721C-0.163517 7.98855 0.00365764 9.59657 0.642592 11.0579C1.28153 12.5192 2.36352 13.7683 3.75176 14.647C5.13999 15.5258 6.77211 15.9948 8.44173 15.9948C10.3165 15.9971 12.1376 15.402 13.6123 14.3054L17.1895 17.7043C17.2876 17.798 17.4043 17.8724 17.5329 17.9231C17.6614 17.9739 17.7994 18 17.9387 18C18.078 18 18.2159 17.9739 18.3445 17.9231C18.4731 17.8724 18.5898 17.798 18.6879 17.7043C18.7868 17.6114 18.8653 17.5008 18.9188 17.379C18.9724 17.2572 19 17.1265 19 16.9945C19 16.8626 18.9724 16.7319 18.9188 16.6101C18.8653 16.4883 18.7868 16.3777 18.6879 16.2848ZM2.11043 7.99743C2.11043 6.81112 2.48176 5.65146 3.17745 4.66508C3.87314 3.6787 4.86195 2.90991 6.01885 2.45593C7.17574 2.00196 8.44875 1.88317 9.6769 2.11461C10.9051 2.34605 12.0332 2.91731 12.9186 3.75615C13.8041 4.595 14.4071 5.66375 14.6514 6.82726C14.8957 7.99077 14.7703 9.19678 14.2911 10.2928C13.8119 11.3888 13.0004 12.3256 11.9592 12.9846C10.918 13.6437 9.69394 13.9955 8.44173 13.9955C6.76256 13.9955 5.15217 13.3636 3.96483 12.2387C2.77748 11.1138 2.11043 9.58821 2.11043 7.99743Z" fill="#626262"/>
</svg>
