<svg width="28" height="26" viewBox="0 0 28 26" fill="none" xmlns="http://www.w3.org/2000/svg">
<rect x="0.359558" width="27.5281" height="26" rx="5" fill="#DA4040"/>
<g clip-path="url(#clip0_1_22)">
<path d="M9.4975 10.1848C9.4975 10.3141 9.55188 10.4381 9.64867 10.5296C9.74547 10.621 9.87676 10.6723 10.0136 10.6723H10.2889V16.433C10.2894 16.8583 10.4685 17.2661 10.7869 17.567C11.1053 17.8678 11.5371 18.037 11.9874 18.0375H16.2598C16.7101 18.037 17.1419 17.8678 17.4603 17.567C17.7787 17.2661 17.9578 16.8583 17.9583 16.433V10.6723H18.2335C18.3704 10.6723 18.5017 10.621 18.5985 10.5296C18.6953 10.4381 18.7497 10.3141 18.7497 10.1848C18.7497 10.0556 18.6953 9.93156 18.5985 9.84013C18.5017 9.74871 18.3704 9.69735 18.2335 9.69735H16.427V9.19425C16.427 8.515 15.842 7.96217 15.1229 7.96217H13.1243C12.4052 7.96217 11.8202 8.51467 11.8202 9.19425V9.69702H10.0136C9.87676 9.69702 9.74547 9.74838 9.64867 9.83981C9.55188 9.93123 9.4975 10.0556 9.4975 10.1848ZM12.8525 9.19457C12.8525 9.05255 12.9743 8.9375 13.1243 8.9375H15.1229C15.2729 8.9375 15.3947 9.05255 15.3947 9.19457V9.69735H12.8521V9.19425L12.8525 9.19457ZM11.3212 10.6723H16.926V16.433C16.9258 16.5998 16.8555 16.7598 16.7307 16.8778C16.6058 16.9958 16.4364 17.0622 16.2598 17.0625H11.9874C11.8108 17.0622 11.6414 16.9958 11.5165 16.8778C11.3916 16.7598 11.3214 16.5998 11.3212 16.433V10.6723Z" fill="white"/>
<path d="M12.8408 16.1645C12.9777 16.1645 13.109 16.1132 13.2058 16.0217C13.3026 15.9303 13.3569 15.8063 13.3569 15.677V12.0578C13.3569 11.9285 13.3026 11.8045 13.2058 11.7131C13.109 11.6217 12.9777 11.5703 12.8408 11.5703C12.7039 11.5703 12.5726 11.6217 12.4758 11.7131C12.379 11.8045 12.3246 11.9285 12.3246 12.0578V15.677C12.3246 15.8063 12.379 15.9303 12.4758 16.0217C12.5726 16.1132 12.7039 16.1645 12.8408 16.1645ZM15.4064 16.1645C15.5433 16.1645 15.6746 16.1132 15.7714 16.0217C15.8682 15.9303 15.9226 15.8063 15.9226 15.677V12.0578C15.9226 11.9285 15.8682 11.8045 15.7714 11.7131C15.6746 11.6217 15.5433 11.5703 15.4064 11.5703C15.2695 11.5703 15.1382 11.6217 15.0414 11.7131C14.9446 11.8045 14.8903 11.9285 14.8903 12.0578V15.677C14.8903 15.8063 14.9446 15.9303 15.0414 16.0217C15.1382 16.1132 15.2695 16.1645 15.4064 16.1645Z" fill="white"/>
</g>
<defs>
<clipPath id="clip0_1_22">
<rect width="11.0112" height="10.4" fill="white" transform="translate(8.61798 7.8)"/>
</clipPath>
</defs>
</svg>
