<svg width="40" height="40" viewBox="0 0 40 40" fill="none" xmlns="http://www.w3.org/2000/svg">
<rect x="0.5" y="0.5" width="39" height="39" rx="19.5" fill="#6B5FE2" stroke="#6B5FE2"/>
<path d="M26.125 19.125H20.875V13.875C20.875 13.6429 20.7828 13.4204 20.6187 13.2563C20.4546 13.0922 20.2321 13 20 13C19.7679 13 19.5454 13.0922 19.3813 13.2563C19.2172 13.4204 19.125 13.6429 19.125 13.875V19.125H13.875C13.6429 19.125 13.4204 19.2172 13.2563 19.3813C13.0922 19.5454 13 19.7679 13 20C13 20.2321 13.0922 20.4546 13.2563 20.6187C13.4204 20.7828 13.6429 20.875 13.875 20.875H19.125V26.125C19.125 26.3571 19.2172 26.5796 19.3813 26.7437C19.5454 26.9078 19.7679 27 20 27C20.2321 27 20.4546 26.9078 20.6187 26.7437C20.7828 26.5796 20.875 26.3571 20.875 26.125V20.875H26.125C26.3571 20.875 26.5796 20.7828 26.7437 20.6187C26.9078 20.4546 27 20.2321 27 20C27 19.7679 26.9078 19.5454 26.7437 19.3813C26.5796 19.2172 26.3571 19.125 26.125 19.125Z" fill="white"/>
</svg>
